# xmcd
#
# Track frame offsets:
#	150
#	10621
#	29284
#	38302
#	52658
#	73181
#	86747
#	101144
#	115070
#	126743
#	141830
#	159693
#	177390
#	192213
#	200064
#
# Disc length: 2816 seconds
#
# Revision: 1
# Processed by: cddbd v1.5.2PL0 Copyright (c) Steve Scherf et al.
# Submitted via: audiograbber 1.83.01
#
DISCID=cf0afe0f
DTITLE=Elvis Presley - Elvis Country (I'm 10,000 Years Old) 40th Anniversary Le
DTITLE=gacy Edition CD1
DYEAR=2012
DGENRE=Country
TTITLE0=Snowbird
TTITLE1=Tomorrow Never Comes
TTITLE2=Little Cabin On The Hill
TTITLE3=Whole Lot-ta Shakin' Goin' On
TTITLE4=Funny How Time Slips Away
TTITLE5=I Really Don't Want To Know
TTITLE6=There Goes My Everything
TTITLE7=It's Your Baby, You Rock It
TTITLE8=The Fool
TTITLE9=Faded Love
TTITLE10=I Washed My Hands In Muddy Water
TTITLE11=Make The World Go Away
TTITLE12=I Was Born About Ten Thousand Years Ago
TTITLE13=A Hundred Years From Now (studio jam)
TTITLE14=Where Did They Go, Lord
EXTD=
EXTT0=
EXTT1=
EXTT2=
EXTT3=
EXTT4=
EXTT5=
EXTT6=
EXTT7=
EXTT8=
EXTT9=
EXTT10=
EXTT11=
EXTT12=
EXTT13=
EXTT14=
PLAYORDER=
